<svg width="574pt" height="432pt" viewBox="0.00 0.00 574.15 431.60" xmlns="http://www.w3.org/2000/svg" xmlns:xlink="http://www.w3.org/1999/xlink">
<g id="graph0" class="graph" transform="scale(1 1) rotate(0) translate(4 427.6)">
<polygon fill="white" stroke="none" points="-4,4 -4,-427.6 570.15,-427.6 570.15,4 -4,4"></polygon>
<!-- b15_sk_0 -->
<g id="node1" class="node">
<title>b15_sk_0</title>
<g id="a_node1"><a xlink:href="http://example.org/p1" xlink:title="http://example.org/p1">
<defs>
<linearGradient id="l_0" gradientUnits="userSpaceOnUse" x1="132" y1="-319.4" x2="217.88" y2="-319.4">
<stop offset="0" style="stop-color:#7fc97f;stop-opacity:1.;"></stop>
<stop offset="1" style="stop-color:#fdc086;stop-opacity:1.;"></stop>
</linearGradient>
</defs>
<polygon fill="url(#l_0)" stroke="none" points="132,-308 132,-330.8 217.88,-330.8 217.88,-308 132,-308"></polygon>
<polygon fill="none" stroke="black" points="132,-308 132,-330.8 217.88,-330.8 217.88,-308 132,-308"></polygon>
<text text-anchor="start" x="167.94" y="-315.2" font-family="Times,serif" font-size="14.00">p1</text>
<polygon fill="none" stroke="black" points="132,-285.2 132,-308 168.32,-308 168.32,-285.2 132,-285.2"></polygon>
<text text-anchor="start" x="138.5" y="-293.4" font-family="Times,serif" font-style="italic" font-size="14.00">type</text>
<polygon fill="none" stroke="black" points="168.32,-285.2 168.32,-308 217.88,-308 217.88,-285.2 168.32,-285.2"></polygon>
<text text-anchor="start" x="171.32" y="-292.4" font-family="Times,serif" font-size="14.00">Product</text>
<polygon fill="none" stroke="black" points="132,-262.4 132,-285.2 168.32,-285.2 168.32,-262.4 132,-262.4"></polygon>
<text text-anchor="start" x="135" y="-270.6" font-family="Times,serif" font-style="italic" font-size="14.00">name</text>
<polygon fill="none" stroke="black" points="168.32,-262.4 168.32,-285.2 217.88,-285.2 217.88,-262.4 168.32,-262.4"></polygon>
<text text-anchor="start" x="183.77" y="-269.6" font-family="Times,serif" font-size="14.00">foo</text>
</a>
</g>
</g>
<!-- b15_sk_2 -->
<g id="node3" class="node">
<title>b15_sk_2</title>
<g id="a_node3"><a xlink:href="http://example.org/c1" xlink:title="http://example.org/c1">
<defs>
<linearGradient id="l_1" gradientUnits="userSpaceOnUse" x1="128.12" y1="-190.2" x2="221.76" y2="-190.2">
<stop offset="0" style="stop-color:#7fc97f;stop-opacity:1.;"></stop>
<stop offset="1" style="stop-color:#fdc086;stop-opacity:1.;"></stop>
</linearGradient>
</defs>
<polygon fill="url(#l_1)" stroke="none" points="128.12,-178.8 128.12,-201.6 221.76,-201.6 221.76,-178.8 128.12,-178.8"></polygon>
<polygon fill="none" stroke="black" points="128.12,-178.8 128.12,-201.6 221.76,-201.6 221.76,-178.8 128.12,-178.8"></polygon>
<text text-anchor="start" x="168.33" y="-186" font-family="Times,serif" font-size="14.00">c1</text>
<polygon fill="none" stroke="black" points="128.12,-156 128.12,-178.8 164.44,-178.8 164.44,-156 128.12,-156"></polygon>
<text text-anchor="start" x="134.62" y="-164.2" font-family="Times,serif" font-style="italic" font-size="14.00">type</text>
<polygon fill="none" stroke="black" points="164.44,-156 164.44,-178.8 221.76,-178.8 221.76,-156 164.44,-156"></polygon>
<text text-anchor="start" x="167.44" y="-163.2" font-family="Times,serif" font-size="14.00">Category</text>
<polygon fill="none" stroke="black" points="128.12,-133.2 128.12,-156 164.44,-156 164.44,-133.2 128.12,-133.2"></polygon>
<text text-anchor="start" x="131.12" y="-141.4" font-family="Times,serif" font-style="italic" font-size="14.00">name</text>
<polygon fill="none" stroke="black" points="164.44,-133.2 164.44,-156 221.76,-156 221.76,-133.2 164.44,-133.2"></polygon>
<text text-anchor="start" x="179.49" y="-140.4" font-family="Times,serif" font-size="14.00">wine</text>
</a>
</g>
</g>
<!-- b15_sk_0&#45;&gt;b15_sk_2 -->
<g id="edge1" class="edge">
<title>b15_sk_0-&gt;b15_sk_2</title>
<g id="a_edge1"><a xlink:title="category">
<path fill="none" stroke="#1f78b4" d="M174.94,-258.47C174.94,-245.4 174.94,-230.53 174.94,-216.69"></path>
<polygon fill="#1f78b4" stroke="#1f78b4" points="178.44,-216.87 174.94,-206.87 171.44,-216.87 178.44,-216.87"></polygon>
</a>
</g>
<g id="a_edge1-label"><a xlink:href="http://example.org/category" xlink:title="category">
<text text-anchor="middle" x="199.03" y="-227.8" font-family="Times,serif" font-size="14.00">category</text>
</a>
</g>
</g>
<!-- b15_sk_1 -->
<g id="node2" class="node">
<title>b15_sk_1</title>
<g id="a_node2"><a xlink:href="http://example.org/p2" xlink:title="http://example.org/p2">
<defs>
<linearGradient id="l_2" gradientUnits="userSpaceOnUse" x1="8" y1="-190.2" x2="93.88" y2="-190.2">
<stop offset="0" style="stop-color:#7fc97f;stop-opacity:1.;"></stop>
<stop offset="1" style="stop-color:#fdc086;stop-opacity:1.;"></stop>
</linearGradient>
</defs>
<polygon fill="url(#l_2)" stroke="none" points="8,-178.8 8,-201.6 93.88,-201.6 93.88,-178.8 8,-178.8"></polygon>
<polygon fill="none" stroke="black" points="8,-178.8 8,-201.6 93.88,-201.6 93.88,-178.8 8,-178.8"></polygon>
<text text-anchor="start" x="43.94" y="-186" font-family="Times,serif" font-size="14.00">p2</text>
<polygon fill="none" stroke="black" points="8,-156 8,-178.8 44.32,-178.8 44.32,-156 8,-156"></polygon>
<text text-anchor="start" x="14.5" y="-164.2" font-family="Times,serif" font-style="italic" font-size="14.00">type</text>
<polygon fill="none" stroke="black" points="44.32,-156 44.32,-178.8 93.88,-178.8 93.88,-156 44.32,-156"></polygon>
<text text-anchor="start" x="47.32" y="-163.2" font-family="Times,serif" font-size="14.00">Product</text>
<polygon fill="none" stroke="black" points="8,-133.2 8,-156 44.32,-156 44.32,-133.2 8,-133.2"></polygon>
<text text-anchor="start" x="11" y="-141.4" font-family="Times,serif" font-style="italic" font-size="14.00">name</text>
<polygon fill="none" stroke="black" points="44.32,-133.2 44.32,-156 93.88,-156 93.88,-133.2 44.32,-133.2"></polygon>
<text text-anchor="start" x="60.16" y="-140.4" font-family="Times,serif" font-size="14.00">bar</text>
</a>
</g>
</g>
<!-- b15_sk_3 -->
<g id="node4" class="node">
<title>b15_sk_3</title>
<g id="a_node4"><a xlink:href="http://example.org/c2" xlink:title="http://example.org/c2">
<defs>
<linearGradient id="l_3" gradientUnits="userSpaceOnUse" x1="39.12" y1="-61" x2="132.76" y2="-61">
<stop offset="0" style="stop-color:#7fc97f;stop-opacity:1.;"></stop>
<stop offset="1" style="stop-color:#fdc086;stop-opacity:1.;"></stop>
</linearGradient>
</defs>
<polygon fill="url(#l_3)" stroke="none" points="39.12,-49.6 39.12,-72.4 132.76,-72.4 132.76,-49.6 39.12,-49.6"></polygon>
<polygon fill="none" stroke="black" points="39.12,-49.6 39.12,-72.4 132.76,-72.4 132.76,-49.6 39.12,-49.6"></polygon>
<text text-anchor="start" x="79.33" y="-56.8" font-family="Times,serif" font-size="14.00">c2</text>
<polygon fill="none" stroke="black" points="39.12,-26.8 39.12,-49.6 75.44,-49.6 75.44,-26.8 39.12,-26.8"></polygon>
<text text-anchor="start" x="45.62" y="-35" font-family="Times,serif" font-style="italic" font-size="14.00">type</text>
<polygon fill="none" stroke="black" points="75.44,-26.8 75.44,-49.6 132.76,-49.6 132.76,-26.8 75.44,-26.8"></polygon>
<text text-anchor="start" x="78.44" y="-34" font-family="Times,serif" font-size="14.00">Category</text>
<polygon fill="none" stroke="black" points="39.12,-4 39.12,-26.8 75.44,-26.8 75.44,-4 39.12,-4"></polygon>
<text text-anchor="start" x="42.12" y="-12.2" font-family="Times,serif" font-style="italic" font-size="14.00">name</text>
<polygon fill="none" stroke="black" points="75.44,-4 75.44,-26.8 132.76,-26.8 132.76,-4 75.44,-4"></polygon>
<text text-anchor="start" x="91.27" y="-11.2" font-family="Times,serif" font-size="14.00">food</text>
</a>
</g>
</g>
<!-- b15_sk_1&#45;&gt;b15_sk_3 -->
<g id="edge2" class="edge">
<title>b15_sk_1-&gt;b15_sk_3</title>
<g id="a_edge2"><a xlink:title="category">
<path fill="none" stroke="#1f78b4" d="M61.16,-129.27C64.79,-116.07 68.92,-101.03 72.77,-87.07"></path>
<polygon fill="#1f78b4" stroke="#1f78b4" points="76.09,-88.19 75.37,-77.62 69.34,-86.33 76.09,-88.19"></polygon>
</a>
</g>
<g id="a_edge2-label"><a xlink:href="http://example.org/category" xlink:title="category">
<text text-anchor="middle" x="94.63" y="-98.6" font-family="Times,serif" font-size="14.00">category</text>
</a>
</g>
</g>
<!-- b15_sk_2&#45;&gt;b15_sk_3 -->
<g id="edge3" class="edge">
<title>b15_sk_2-&gt;b15_sk_3</title>
<g id="a_edge3"><a xlink:title="parent">
<path fill="none" stroke="#b2df8a" d="M148.96,-129.27C139.36,-115.55 128.37,-99.84 118.27,-85.42"></path>
<polygon fill="#b2df8a" stroke="#b2df8a" points="121.27,-83.59 112.67,-77.4 115.53,-87.6 121.27,-83.59"></polygon>
</a>
</g>
<g id="a_edge3-label"><a xlink:href="http://example.org/parent" xlink:title="parent">
<text text-anchor="middle" x="153.26" y="-98.6" font-family="Times,serif" font-size="14.00">parent</text>
</a>
</g>
</g>
<!-- b15_sk_4 -->
<g id="node5" class="node">
<title>b15_sk_4</title>
<g id="a_node5"><a xlink:title="https://eyereasoner.github.io/.well-known/genid/aac309ba-4067-4a18-971f-3dc225098fc7#e_b1_1">
<ellipse fill="none" stroke="black" cx="319.94" cy="-405.6" rx="18" ry="18"></ellipse>
</a>
</g>
</g>
<!-- b15_sk_4&#45;&gt;b15_sk_0 -->
<g id="edge4" class="edge">
<title>b15_sk_4-&gt;b15_sk_0</title>
<g id="a_edge4"><a xlink:title="product">
<path fill="none" stroke="#33a02c" d="M305.77,-394.15C289.13,-381.87 260.46,-360.71 234.2,-341.33"></path>
<polygon fill="#33a02c" stroke="#33a02c" points="236.37,-338.58 226.25,-335.46 232.21,-344.22 236.37,-338.58"></polygon>
</a>
</g>
<g id="a_edge4-label"><a xlink:href="http://example.org/product" xlink:title="product">
<text text-anchor="middle" x="290.28" y="-357" font-family="Times,serif" font-size="14.00">product</text>
</a>
</g>
</g>
<!-- b15_sk_5 -->
<g id="node6" class="node">
<title>b15_sk_5</title>
<g id="a_node6"><a xlink:title="https://eyereasoner.github.io/.well-known/genid/aac309ba-4067-4a18-971f-3dc225098fc7#e_b2_1">
<polygon fill="none" stroke="black" points="251.72,-308 251.72,-330.8 316.83,-330.8 316.83,-308 251.72,-308"></polygon>
<text text-anchor="start" x="269.89" y="-316.2" font-family="Times,serif" font-style="italic" font-size="14.00">price</text>
<polygon fill="none" stroke="black" points="316.83,-308 316.83,-330.8 388.15,-330.8 388.15,-308 316.83,-308"></polygon>
<text text-anchor="start" x="345.49" y="-315.2" font-family="Times,serif" font-size="14.00">25</text>
<polygon fill="none" stroke="black" points="251.72,-285.2 251.72,-308 316.83,-308 316.83,-285.2 251.72,-285.2"></polygon>
<text text-anchor="start" x="254.72" y="-293.4" font-family="Times,serif" font-style="italic" font-size="14.00">validFrom</text>
<polygon fill="none" stroke="black" points="316.83,-285.2 316.83,-308 388.15,-308 388.15,-285.2 316.83,-285.2"></polygon>
<text text-anchor="start" x="319.83" y="-292.4" font-family="Times,serif" font-size="14.00">2023-01-01</text>
<polygon fill="none" stroke="black" points="251.72,-262.4 251.72,-285.2 316.83,-285.2 316.83,-262.4 251.72,-262.4"></polygon>
<text text-anchor="start" x="262.89" y="-270.6" font-family="Times,serif" font-style="italic" font-size="14.00">validTo</text>
<polygon fill="none" stroke="black" points="316.83,-262.4 316.83,-285.2 388.15,-285.2 388.15,-262.4 316.83,-262.4"></polygon>
<text text-anchor="start" x="319.83" y="-269.6" font-family="Times,serif" font-size="14.00">2026-01-01</text>
</a>
</g>
</g>
<!-- b15_sk_4&#45;&gt;b15_sk_5 -->
<g id="edge5" class="edge">
<title>b15_sk_4-&gt;b15_sk_5</title>
<g id="a_edge5"><a xlink:title="uk">
<path fill="none" stroke="#fb9a99" d="M319.94,-387.41C319.94,-376.11 319.94,-360.72 319.94,-345.88"></path>
<polygon fill="#fb9a99" stroke="#fb9a99" points="323.44,-346.22 319.94,-336.22 316.44,-346.22 323.44,-346.22"></polygon>
</a>
</g>
<g id="a_edge5-label"><a xlink:href="http://example.org/uk" xlink:title="uk">
<text text-anchor="middle" x="326.94" y="-357" font-family="Times,serif" font-size="14.00">uk</text>
</a>
</g>
</g>
<!-- b15_sk_6 -->
<g id="node7" class="node">
<title>b15_sk_6</title>
<g id="a_node7"><a xlink:title="https://eyereasoner.github.io/.well-known/genid/aac309ba-4067-4a18-971f-3dc225098fc7#e_b3_1">
<polygon fill="none" stroke="black" points="421.72,-308 421.72,-330.8 486.83,-330.8 486.83,-308 421.72,-308"></polygon>
<text text-anchor="start" x="439.89" y="-316.2" font-family="Times,serif" font-style="italic" font-size="14.00">price</text>
<polygon fill="none" stroke="black" points="486.83,-308 486.83,-330.8 558.15,-330.8 558.15,-308 486.83,-308"></polygon>
<text text-anchor="start" x="515.49" y="-315.2" font-family="Times,serif" font-size="14.00">29</text>
<polygon fill="none" stroke="black" points="421.72,-285.2 421.72,-308 486.83,-308 486.83,-285.2 421.72,-285.2"></polygon>
<text text-anchor="start" x="424.72" y="-293.4" font-family="Times,serif" font-style="italic" font-size="14.00">validFrom</text>
<polygon fill="none" stroke="black" points="486.83,-285.2 486.83,-308 558.15,-308 558.15,-285.2 486.83,-285.2"></polygon>
<text text-anchor="start" x="489.83" y="-292.4" font-family="Times,serif" font-size="14.00">2024-01-01</text>
<polygon fill="none" stroke="black" points="421.72,-262.4 421.72,-285.2 486.83,-285.2 486.83,-262.4 421.72,-262.4"></polygon>
<text text-anchor="start" x="432.89" y="-270.6" font-family="Times,serif" font-style="italic" font-size="14.00">validTo</text>
<polygon fill="none" stroke="black" points="486.83,-262.4 486.83,-285.2 558.15,-285.2 558.15,-262.4 486.83,-262.4"></polygon>
<text text-anchor="start" x="489.83" y="-269.6" font-family="Times,serif" font-size="14.00">2025-01-01</text>
</a>
</g>
</g>
<!-- b15_sk_4&#45;&gt;b15_sk_6 -->
<g id="edge6" class="edge">
<title>b15_sk_4-&gt;b15_sk_6</title>
<g id="a_edge6"><a xlink:title="us">
<path fill="none" stroke="#e31a1c" d="M335.02,-395.1C354.55,-382.81 389.87,-360.59 421.85,-340.45"></path>
<polygon fill="#e31a1c" stroke="#e31a1c" points="423.33,-343.66 429.93,-335.37 419.6,-337.73 423.33,-343.66"></polygon>
</a>
</g>
<g id="a_edge6-label"><a xlink:href="http://example.org/us" xlink:title="us">
<text text-anchor="middle" x="406.06" y="-357" font-family="Times,serif" font-size="14.00">us</text>
</a>
</g>
</g>
</g>
</svg>